<mxfile host="app.diagrams.net" modified="2023-09-18T16:41:45.771Z" agent="Mozilla/5.0 (Windows NT 10.0; Win64; x64) AppleWebKit/537.36 (KHTML, like Gecko) Chrome/114.0.0.0 YaBrowser/23.7.5.739 Yowser/2.5 Safari/537.36" etag="kbs6y-E_AvPZHc-DeQJ1" version="21.4.0" type="device">
  <diagram name="Страница 1" id="nVDpSdPMdhviuInrsx2h">
    <mxGraphModel dx="-3069" dy="611" grid="1" gridSize="10" guides="1" tooltips="1" connect="1" arrows="1" fold="1" page="1" pageScale="1" pageWidth="827" pageHeight="1169" math="0" shadow="0">
      <root>
        <mxCell id="0" />
        <mxCell id="1" parent="0" />
        <mxCell id="ExVRZ1n0DD9--DiuBd9m-1" style="edgeStyle=orthogonalEdgeStyle;rounded=0;orthogonalLoop=1;jettySize=auto;html=1;" edge="1" parent="1" source="ExVRZ1n0DD9--DiuBd9m-5" target="ExVRZ1n0DD9--DiuBd9m-8">
          <mxGeometry relative="1" as="geometry">
            <mxPoint x="4890" y="800" as="targetPoint" />
          </mxGeometry>
        </mxCell>
        <mxCell id="ExVRZ1n0DD9--DiuBd9m-2" style="edgeStyle=orthogonalEdgeStyle;rounded=0;orthogonalLoop=1;jettySize=auto;html=1;entryX=1;entryY=0.5;entryDx=0;entryDy=0;" edge="1" parent="1" source="ExVRZ1n0DD9--DiuBd9m-5" target="ExVRZ1n0DD9--DiuBd9m-11">
          <mxGeometry relative="1" as="geometry">
            <mxPoint x="4700" y="700" as="targetPoint" />
          </mxGeometry>
        </mxCell>
        <mxCell id="ExVRZ1n0DD9--DiuBd9m-3" style="edgeStyle=orthogonalEdgeStyle;rounded=0;orthogonalLoop=1;jettySize=auto;html=1;" edge="1" parent="1" source="ExVRZ1n0DD9--DiuBd9m-5" target="ExVRZ1n0DD9--DiuBd9m-17">
          <mxGeometry relative="1" as="geometry">
            <mxPoint x="5060" y="700" as="targetPoint" />
          </mxGeometry>
        </mxCell>
        <mxCell id="ExVRZ1n0DD9--DiuBd9m-4" style="edgeStyle=orthogonalEdgeStyle;rounded=0;orthogonalLoop=1;jettySize=auto;html=1;exitX=0.5;exitY=1;exitDx=0;exitDy=0;" edge="1" parent="1" source="ExVRZ1n0DD9--DiuBd9m-5" target="ExVRZ1n0DD9--DiuBd9m-52">
          <mxGeometry relative="1" as="geometry">
            <mxPoint x="5150" y="790" as="targetPoint" />
          </mxGeometry>
        </mxCell>
        <mxCell id="ExVRZ1n0DD9--DiuBd9m-5" value="Оператор&amp;nbsp;&lt;br&gt;мобильной&amp;nbsp;&lt;br&gt;связи&amp;nbsp;" style="rounded=0;whiteSpace=wrap;html=1;" vertex="1" parent="1">
          <mxGeometry x="4830" y="670" width="120" height="60" as="geometry" />
        </mxCell>
        <mxCell id="ExVRZ1n0DD9--DiuBd9m-6" style="edgeStyle=orthogonalEdgeStyle;rounded=0;orthogonalLoop=1;jettySize=auto;html=1;" edge="1" parent="1" source="ExVRZ1n0DD9--DiuBd9m-8" target="ExVRZ1n0DD9--DiuBd9m-32">
          <mxGeometry relative="1" as="geometry">
            <mxPoint x="4890" y="890" as="targetPoint" />
          </mxGeometry>
        </mxCell>
        <mxCell id="ExVRZ1n0DD9--DiuBd9m-7" style="edgeStyle=orthogonalEdgeStyle;rounded=0;orthogonalLoop=1;jettySize=auto;html=1;" edge="1" parent="1" source="ExVRZ1n0DD9--DiuBd9m-8" target="ExVRZ1n0DD9--DiuBd9m-42">
          <mxGeometry relative="1" as="geometry">
            <mxPoint x="4760" y="800" as="targetPoint" />
          </mxGeometry>
        </mxCell>
        <mxCell id="ExVRZ1n0DD9--DiuBd9m-8" value="Задачи&lt;br&gt;оператора" style="rounded=0;whiteSpace=wrap;html=1;" vertex="1" parent="1">
          <mxGeometry x="4830" y="770" width="120" height="60" as="geometry" />
        </mxCell>
        <mxCell id="ExVRZ1n0DD9--DiuBd9m-9" value="Имеет&lt;br&gt;" style="text;html=1;strokeColor=none;fillColor=none;align=center;verticalAlign=middle;whiteSpace=wrap;rounded=0;" vertex="1" parent="1">
          <mxGeometry x="4570" y="660" width="60" height="30" as="geometry" />
        </mxCell>
        <mxCell id="ExVRZ1n0DD9--DiuBd9m-10" style="edgeStyle=orthogonalEdgeStyle;rounded=0;orthogonalLoop=1;jettySize=auto;html=1;entryX=0.5;entryY=0;entryDx=0;entryDy=0;" edge="1" parent="1" source="ExVRZ1n0DD9--DiuBd9m-11" target="ExVRZ1n0DD9--DiuBd9m-13">
          <mxGeometry relative="1" as="geometry" />
        </mxCell>
        <mxCell id="ExVRZ1n0DD9--DiuBd9m-11" value="Лицензии" style="rounded=0;whiteSpace=wrap;html=1;" vertex="1" parent="1">
          <mxGeometry x="4420" y="670" width="120" height="60" as="geometry" />
        </mxCell>
        <mxCell id="ExVRZ1n0DD9--DiuBd9m-12" style="edgeStyle=orthogonalEdgeStyle;rounded=0;orthogonalLoop=1;jettySize=auto;html=1;" edge="1" parent="1" source="ExVRZ1n0DD9--DiuBd9m-13" target="ExVRZ1n0DD9--DiuBd9m-15">
          <mxGeometry relative="1" as="geometry">
            <mxPoint x="4620" y="892.5" as="targetPoint" />
          </mxGeometry>
        </mxCell>
        <mxCell id="ExVRZ1n0DD9--DiuBd9m-13" value="GSM" style="rounded=0;whiteSpace=wrap;html=1;" vertex="1" parent="1">
          <mxGeometry x="4420" y="780" width="120" height="60" as="geometry" />
        </mxCell>
        <mxCell id="ExVRZ1n0DD9--DiuBd9m-14" value="Например" style="text;html=1;strokeColor=none;fillColor=none;align=center;verticalAlign=middle;whiteSpace=wrap;rounded=0;" vertex="1" parent="1">
          <mxGeometry x="4490" y="750" width="60" height="30" as="geometry" />
        </mxCell>
        <mxCell id="ExVRZ1n0DD9--DiuBd9m-15" value="DAMPS" style="rounded=0;whiteSpace=wrap;html=1;" vertex="1" parent="1">
          <mxGeometry x="4420" y="870" width="120" height="60" as="geometry" />
        </mxCell>
        <mxCell id="ExVRZ1n0DD9--DiuBd9m-16" style="edgeStyle=orthogonalEdgeStyle;rounded=0;orthogonalLoop=1;jettySize=auto;html=1;" edge="1" parent="1" source="ExVRZ1n0DD9--DiuBd9m-17" target="ExVRZ1n0DD9--DiuBd9m-20">
          <mxGeometry relative="1" as="geometry">
            <mxPoint x="5110" y="775" as="targetPoint" />
          </mxGeometry>
        </mxCell>
        <mxCell id="ExVRZ1n0DD9--DiuBd9m-17" value="Услуги" style="rounded=0;whiteSpace=wrap;html=1;" vertex="1" parent="1">
          <mxGeometry x="5300" y="665" width="120" height="60" as="geometry" />
        </mxCell>
        <mxCell id="ExVRZ1n0DD9--DiuBd9m-18" value="Имеет&lt;br&gt;" style="text;html=1;strokeColor=none;fillColor=none;align=center;verticalAlign=middle;whiteSpace=wrap;rounded=0;" vertex="1" parent="1">
          <mxGeometry x="4980" y="665" width="60" height="30" as="geometry" />
        </mxCell>
        <mxCell id="ExVRZ1n0DD9--DiuBd9m-19" style="edgeStyle=orthogonalEdgeStyle;rounded=0;orthogonalLoop=1;jettySize=auto;html=1;entryX=0.5;entryY=0;entryDx=0;entryDy=0;" edge="1" parent="1" source="ExVRZ1n0DD9--DiuBd9m-20" target="ExVRZ1n0DD9--DiuBd9m-22">
          <mxGeometry relative="1" as="geometry" />
        </mxCell>
        <mxCell id="ExVRZ1n0DD9--DiuBd9m-20" value="Голосовой звонок" style="rounded=0;whiteSpace=wrap;html=1;" vertex="1" parent="1">
          <mxGeometry x="5300" y="745" width="120" height="60" as="geometry" />
        </mxCell>
        <mxCell id="ExVRZ1n0DD9--DiuBd9m-21" style="edgeStyle=orthogonalEdgeStyle;rounded=0;orthogonalLoop=1;jettySize=auto;html=1;entryX=0.5;entryY=0;entryDx=0;entryDy=0;" edge="1" parent="1" source="ExVRZ1n0DD9--DiuBd9m-22" target="ExVRZ1n0DD9--DiuBd9m-24">
          <mxGeometry relative="1" as="geometry" />
        </mxCell>
        <mxCell id="ExVRZ1n0DD9--DiuBd9m-22" value="Автоответчик" style="rounded=0;whiteSpace=wrap;html=1;" vertex="1" parent="1">
          <mxGeometry x="5300" y="825" width="120" height="60" as="geometry" />
        </mxCell>
        <mxCell id="ExVRZ1n0DD9--DiuBd9m-23" style="edgeStyle=orthogonalEdgeStyle;rounded=0;orthogonalLoop=1;jettySize=auto;html=1;exitX=0.5;exitY=1;exitDx=0;exitDy=0;entryX=0.5;entryY=0;entryDx=0;entryDy=0;" edge="1" parent="1" source="ExVRZ1n0DD9--DiuBd9m-24" target="ExVRZ1n0DD9--DiuBd9m-26">
          <mxGeometry relative="1" as="geometry" />
        </mxCell>
        <mxCell id="ExVRZ1n0DD9--DiuBd9m-24" value="Роуминг" style="rounded=0;whiteSpace=wrap;html=1;" vertex="1" parent="1">
          <mxGeometry x="5300" y="905" width="120" height="60" as="geometry" />
        </mxCell>
        <mxCell id="ExVRZ1n0DD9--DiuBd9m-25" style="edgeStyle=orthogonalEdgeStyle;rounded=0;orthogonalLoop=1;jettySize=auto;html=1;exitX=0.5;exitY=1;exitDx=0;exitDy=0;entryX=0.5;entryY=0;entryDx=0;entryDy=0;" edge="1" parent="1" source="ExVRZ1n0DD9--DiuBd9m-26" target="ExVRZ1n0DD9--DiuBd9m-28">
          <mxGeometry relative="1" as="geometry" />
        </mxCell>
        <mxCell id="ExVRZ1n0DD9--DiuBd9m-26" value="&lt;a href=&quot;https://ru.wikipedia.org/wiki/%D0%90%D0%9E%D0%9D&quot; title=&quot;АОН&quot; style=&quot;text-decoration-line: none; background: none rgb(255, 255, 255); overflow-wrap: break-word; font-family: sans-serif; text-align: left;&quot;&gt;&lt;font color=&quot;#000000&quot; style=&quot;font-size: 12px;&quot;&gt;АОН (Автоматический определитель номера)&lt;/font&gt;&lt;/a&gt;" style="rounded=0;whiteSpace=wrap;html=1;" vertex="1" parent="1">
          <mxGeometry x="5300" y="980" width="120" height="60" as="geometry" />
        </mxCell>
        <mxCell id="ExVRZ1n0DD9--DiuBd9m-27" style="edgeStyle=orthogonalEdgeStyle;rounded=0;orthogonalLoop=1;jettySize=auto;html=1;" edge="1" parent="1" source="ExVRZ1n0DD9--DiuBd9m-28" target="ExVRZ1n0DD9--DiuBd9m-30">
          <mxGeometry relative="1" as="geometry" />
        </mxCell>
        <mxCell id="ExVRZ1n0DD9--DiuBd9m-28" value="&lt;div style=&quot;&quot;&gt;&lt;a href=&quot;https://ru.wikipedia.org/wiki/SMS&quot; title=&quot;SMS&quot; style=&quot;text-decoration-line: none; background: none rgb(255, 255, 255); overflow-wrap: break-word; font-family: sans-serif; font-size: 14px;&quot;&gt;&lt;font color=&quot;#000000&quot;&gt;Приём и передача коротких текстовых сообщений&amp;nbsp;&lt;/font&gt;&lt;/a&gt;&lt;font face=&quot;sans-serif&quot;&gt;&lt;span style=&quot;font-size: 11px;&quot;&gt;&lt;br&gt;&lt;/span&gt;&lt;/font&gt;&lt;/div&gt;" style="rounded=0;whiteSpace=wrap;html=1;" vertex="1" parent="1">
          <mxGeometry x="5300" y="1065" width="130" height="90" as="geometry" />
        </mxCell>
        <mxCell id="ExVRZ1n0DD9--DiuBd9m-29" value="Например" style="text;html=1;strokeColor=none;fillColor=none;align=center;verticalAlign=middle;whiteSpace=wrap;rounded=0;" vertex="1" parent="1">
          <mxGeometry x="5370" y="725" width="60" height="30" as="geometry" />
        </mxCell>
        <mxCell id="ExVRZ1n0DD9--DiuBd9m-30" value="&lt;a href=&quot;https://ru.wikipedia.org/wiki/MMS&quot; title=&quot;MMS&quot; style=&quot;text-decoration-line: none; background: none rgb(255, 255, 255); overflow-wrap: break-word; font-family: sans-serif; font-size: 14px; text-align: left;&quot;&gt;&lt;font color=&quot;#000000&quot;&gt;Приём и передача мультимедийных сообщений - изображений, мелодий, видео (MMS-сервис)&lt;/font&gt;&lt;/a&gt;" style="rounded=0;whiteSpace=wrap;html=1;" vertex="1" parent="1">
          <mxGeometry x="5280" y="1195" width="170" height="90" as="geometry" />
        </mxCell>
        <mxCell id="ExVRZ1n0DD9--DiuBd9m-31" style="edgeStyle=orthogonalEdgeStyle;rounded=0;orthogonalLoop=1;jettySize=auto;html=1;" edge="1" parent="1" source="ExVRZ1n0DD9--DiuBd9m-32" target="ExVRZ1n0DD9--DiuBd9m-35">
          <mxGeometry relative="1" as="geometry">
            <mxPoint x="4905" y="1010" as="targetPoint" />
          </mxGeometry>
        </mxCell>
        <mxCell id="ExVRZ1n0DD9--DiuBd9m-32" value="&lt;ul style=&quot;list-style-image: url(&amp;quot;/w/skins/Vector/resources/common/images/bullet-icon.svg?d4515&amp;quot;); margin: 0.3em 0px 0px 1.6em; padding: 0px; color: rgb(32, 33, 34); font-family: sans-serif; text-align: start; background-color: rgb(255, 255, 255);&quot;&gt;&lt;li style=&quot;margin-bottom: 0.1em;&quot;&gt;&lt;font style=&quot;font-size: 13px;&quot;&gt;получение разрешительных документов на использование радиочастот и предоставление услуг,&lt;/font&gt;&lt;/li&gt;&lt;/ul&gt;" style="rounded=0;whiteSpace=wrap;html=1;" vertex="1" parent="1">
          <mxGeometry x="4780" y="875" width="250" height="100" as="geometry" />
        </mxCell>
        <mxCell id="ExVRZ1n0DD9--DiuBd9m-33" value="Входят" style="text;html=1;strokeColor=none;fillColor=none;align=center;verticalAlign=middle;whiteSpace=wrap;rounded=0;" vertex="1" parent="1">
          <mxGeometry x="4890" y="830" width="60" height="30" as="geometry" />
        </mxCell>
        <mxCell id="ExVRZ1n0DD9--DiuBd9m-34" style="edgeStyle=orthogonalEdgeStyle;rounded=0;orthogonalLoop=1;jettySize=auto;html=1;exitX=0.5;exitY=1;exitDx=0;exitDy=0;entryX=0.5;entryY=0;entryDx=0;entryDy=0;" edge="1" parent="1" source="ExVRZ1n0DD9--DiuBd9m-35" target="ExVRZ1n0DD9--DiuBd9m-37">
          <mxGeometry relative="1" as="geometry" />
        </mxCell>
        <mxCell id="ExVRZ1n0DD9--DiuBd9m-35" value="построение собственной&amp;nbsp;&lt;a href=&quot;https://ru.wikipedia.org/wiki/%D0%A1%D0%BE%D1%82%D0%BE%D0%B2%D0%B0%D1%8F_%D1%81%D0%B5%D1%82%D1%8C&quot; class=&quot;mw-redirect&quot; title=&quot;Сотовая сеть&quot; style=&quot;text-decoration-line: none; background: none rgb(255, 255, 255); overflow-wrap: break-word; font-family: sans-serif; font-size: 14px; text-align: left;&quot;&gt;&lt;font color=&quot;#000000&quot;&gt;сотовой сети&lt;/font&gt;&lt;/a&gt;&lt;span style=&quot;font-family: sans-serif; font-size: 14px; text-align: left; background-color: rgb(255, 255, 255);&quot;&gt;&amp;nbsp;и её последующая&amp;nbsp;&lt;/span&gt;&lt;a href=&quot;https://ru.wikipedia.org/w/index.php?title=%D0%AD%D0%BA%D1%81%D0%BF%D0%BB%D1%83%D0%B0%D1%82%D0%B0%D1%86%D0%B8%D1%8F_(%D1%82%D0%B5%D1%85%D0%BD%D0%B8%D0%BA%D0%B0)&amp;amp;action=edit&amp;amp;redlink=1&quot; class=&quot;new&quot; title=&quot;Эксплуатация (техника) (страница отсутствует)&quot; style=&quot;text-decoration-line: none; background: none rgb(255, 255, 255); overflow-wrap: break-word; font-family: sans-serif; font-size: 14px; text-align: left;&quot;&gt;&lt;font color=&quot;#000000&quot;&gt;эксплуатация&lt;/font&gt;&lt;/a&gt;" style="rounded=0;whiteSpace=wrap;html=1;strokeColor=#000000;" vertex="1" parent="1">
          <mxGeometry x="4802.5" y="1010" width="205" height="80" as="geometry" />
        </mxCell>
        <mxCell id="ExVRZ1n0DD9--DiuBd9m-36" style="edgeStyle=orthogonalEdgeStyle;rounded=0;orthogonalLoop=1;jettySize=auto;html=1;entryX=0.5;entryY=0;entryDx=0;entryDy=0;" edge="1" parent="1" source="ExVRZ1n0DD9--DiuBd9m-37" target="ExVRZ1n0DD9--DiuBd9m-39">
          <mxGeometry relative="1" as="geometry" />
        </mxCell>
        <mxCell id="ExVRZ1n0DD9--DiuBd9m-37" value="разработка условий обслуживания" style="rounded=0;whiteSpace=wrap;html=1;" vertex="1" parent="1">
          <mxGeometry x="4780" y="1110" width="230" height="40" as="geometry" />
        </mxCell>
        <mxCell id="ExVRZ1n0DD9--DiuBd9m-38" style="edgeStyle=orthogonalEdgeStyle;rounded=0;orthogonalLoop=1;jettySize=auto;html=1;exitX=0.5;exitY=1;exitDx=0;exitDy=0;" edge="1" parent="1" source="ExVRZ1n0DD9--DiuBd9m-39" target="ExVRZ1n0DD9--DiuBd9m-40">
          <mxGeometry relative="1" as="geometry" />
        </mxCell>
        <mxCell id="ExVRZ1n0DD9--DiuBd9m-39" value="сбор платежей за свои услуги" style="rounded=0;whiteSpace=wrap;html=1;" vertex="1" parent="1">
          <mxGeometry x="4787.5" y="1180" width="220" height="50" as="geometry" />
        </mxCell>
        <mxCell id="ExVRZ1n0DD9--DiuBd9m-40" value="предоставление технической поддержки" style="rounded=0;whiteSpace=wrap;html=1;" vertex="1" parent="1">
          <mxGeometry x="4837.5" y="1270" width="120" height="60" as="geometry" />
        </mxCell>
        <mxCell id="ExVRZ1n0DD9--DiuBd9m-41" style="edgeStyle=orthogonalEdgeStyle;rounded=0;orthogonalLoop=1;jettySize=auto;html=1;exitX=0.5;exitY=1;exitDx=0;exitDy=0;entryX=0.5;entryY=0;entryDx=0;entryDy=0;" edge="1" parent="1" source="ExVRZ1n0DD9--DiuBd9m-42" target="ExVRZ1n0DD9--DiuBd9m-44">
          <mxGeometry relative="1" as="geometry" />
        </mxCell>
        <mxCell id="ExVRZ1n0DD9--DiuBd9m-42" value="Неочевидные&lt;br&gt;задачи" style="rounded=0;whiteSpace=wrap;html=1;" vertex="1" parent="1">
          <mxGeometry x="4620" y="770" width="120" height="60" as="geometry" />
        </mxCell>
        <mxCell id="ExVRZ1n0DD9--DiuBd9m-43" style="edgeStyle=orthogonalEdgeStyle;rounded=0;orthogonalLoop=1;jettySize=auto;html=1;" edge="1" parent="1" source="ExVRZ1n0DD9--DiuBd9m-44" target="ExVRZ1n0DD9--DiuBd9m-46">
          <mxGeometry relative="1" as="geometry">
            <mxPoint x="4680" y="990" as="targetPoint" />
          </mxGeometry>
        </mxCell>
        <mxCell id="ExVRZ1n0DD9--DiuBd9m-44" value="&lt;font style=&quot;font-size: 12px;&quot;&gt;&lt;a href=&quot;https://ru.wikipedia.org/wiki/%D0%9C%D0%B0%D1%80%D0%BA%D0%B5%D1%82%D0%B8%D0%BD%D0%B3&quot; title=&quot;Маркетинг&quot; style=&quot;text-decoration-line: none; background: none rgb(255, 255, 255); overflow-wrap: break-word; font-family: sans-serif; text-align: left;&quot;&gt;&lt;font color=&quot;#000000&quot; style=&quot;font-size: 12px;&quot;&gt;маркетинговые&lt;/font&gt;&lt;/a&gt;&amp;nbsp;усилия для продвижения услуг на рынке&lt;/font&gt;" style="rounded=0;whiteSpace=wrap;html=1;" vertex="1" parent="1">
          <mxGeometry x="4610" y="875" width="140" height="85" as="geometry" />
        </mxCell>
        <mxCell id="ExVRZ1n0DD9--DiuBd9m-45" style="edgeStyle=orthogonalEdgeStyle;rounded=0;orthogonalLoop=1;jettySize=auto;html=1;exitX=0.5;exitY=1;exitDx=0;exitDy=0;entryX=0.5;entryY=0;entryDx=0;entryDy=0;" edge="1" parent="1" source="ExVRZ1n0DD9--DiuBd9m-46" target="ExVRZ1n0DD9--DiuBd9m-48">
          <mxGeometry relative="1" as="geometry" />
        </mxCell>
        <mxCell id="ExVRZ1n0DD9--DiuBd9m-46" value="разработка стратегического плана развития сети" style="rounded=0;whiteSpace=wrap;html=1;" vertex="1" parent="1">
          <mxGeometry x="4620" y="1000" width="120" height="60" as="geometry" />
        </mxCell>
        <mxCell id="ExVRZ1n0DD9--DiuBd9m-47" style="edgeStyle=orthogonalEdgeStyle;rounded=0;orthogonalLoop=1;jettySize=auto;html=1;entryX=0.5;entryY=0;entryDx=0;entryDy=0;" edge="1" parent="1" source="ExVRZ1n0DD9--DiuBd9m-48" target="ExVRZ1n0DD9--DiuBd9m-49">
          <mxGeometry relative="1" as="geometry" />
        </mxCell>
        <mxCell id="ExVRZ1n0DD9--DiuBd9m-48" value="технологическое совершенствование&amp;nbsp;&lt;a href=&quot;https://ru.wikipedia.org/wiki/%D0%98%D0%BD%D1%84%D1%80%D0%B0%D1%81%D1%82%D1%80%D1%83%D0%BA%D1%82%D1%83%D1%80%D0%B0&quot; title=&quot;Инфраструктура&quot; style=&quot;text-decoration-line: none; background: none rgb(255, 255, 255); overflow-wrap: break-word; font-family: sans-serif; font-size: 14px; text-align: left;&quot;&gt;&lt;font color=&quot;#000000&quot;&gt;инфраструктуры&lt;/font&gt;&lt;/a&gt;" style="rounded=0;whiteSpace=wrap;html=1;" vertex="1" parent="1">
          <mxGeometry x="4510" y="1100" width="230" height="70" as="geometry" />
        </mxCell>
        <mxCell id="ExVRZ1n0DD9--DiuBd9m-49" value="&lt;a href=&quot;https://ru.wikipedia.org/wiki/%D0%A0%D0%B5%D1%84%D0%B0%D1%80%D0%BC%D0%B8%D0%BD%D0%B3&quot; title=&quot;Рефарминг&quot; style=&quot;text-decoration-line: none; background: none rgb(255, 255, 255); overflow-wrap: break-word; font-family: sans-serif; font-size: 14px; text-align: left;&quot;&gt;&lt;font color=&quot;#000000&quot;&gt;рефарминг&lt;/font&gt;&lt;/a&gt;&amp;nbsp;используемых радиочастот" style="rounded=0;whiteSpace=wrap;html=1;" vertex="1" parent="1">
          <mxGeometry x="4510" y="1200" width="175" height="60" as="geometry" />
        </mxCell>
        <mxCell id="ExVRZ1n0DD9--DiuBd9m-50" value="Входят" style="text;html=1;strokeColor=none;fillColor=none;align=center;verticalAlign=middle;whiteSpace=wrap;rounded=0;" vertex="1" parent="1">
          <mxGeometry x="4685" y="830" width="60" height="30" as="geometry" />
        </mxCell>
        <mxCell id="ExVRZ1n0DD9--DiuBd9m-51" style="edgeStyle=orthogonalEdgeStyle;rounded=0;orthogonalLoop=1;jettySize=auto;html=1;" edge="1" parent="1" source="ExVRZ1n0DD9--DiuBd9m-52" target="ExVRZ1n0DD9--DiuBd9m-55">
          <mxGeometry relative="1" as="geometry">
            <mxPoint x="5160" y="880" as="targetPoint" />
          </mxGeometry>
        </mxCell>
        <mxCell id="ExVRZ1n0DD9--DiuBd9m-52" value="торговлю сотовыми телефонами" style="rounded=0;whiteSpace=wrap;html=1;" vertex="1" parent="1">
          <mxGeometry x="5100" y="780" width="120" height="60" as="geometry" />
        </mxCell>
        <mxCell id="ExVRZ1n0DD9--DiuBd9m-53" value="осуществляет" style="text;html=1;strokeColor=none;fillColor=none;align=center;verticalAlign=middle;whiteSpace=wrap;rounded=0;" vertex="1" parent="1">
          <mxGeometry x="5010" y="715" width="60" height="30" as="geometry" />
        </mxCell>
        <mxCell id="ExVRZ1n0DD9--DiuBd9m-54" style="edgeStyle=orthogonalEdgeStyle;rounded=0;orthogonalLoop=1;jettySize=auto;html=1;" edge="1" parent="1" source="ExVRZ1n0DD9--DiuBd9m-55" target="ExVRZ1n0DD9--DiuBd9m-56">
          <mxGeometry relative="1" as="geometry">
            <mxPoint x="5160" y="970" as="targetPoint" />
          </mxGeometry>
        </mxCell>
        <mxCell id="ExVRZ1n0DD9--DiuBd9m-55" value="продажу цифрового контента для телефонов" style="rounded=0;whiteSpace=wrap;html=1;" vertex="1" parent="1">
          <mxGeometry x="5100" y="880" width="120" height="60" as="geometry" />
        </mxCell>
        <mxCell id="ExVRZ1n0DD9--DiuBd9m-56" value="предоставляют доступ в&amp;nbsp;&lt;a href=&quot;https://ru.wikipedia.org/wiki/%D0%98%D0%BD%D1%82%D0%B5%D1%80%D0%BD%D0%B5%D1%82&quot; title=&quot;Интернет&quot; style=&quot;text-decoration-line: none; background: none rgb(255, 255, 255); overflow-wrap: break-word; font-family: sans-serif; font-size: 14px; text-align: left;&quot;&gt;&lt;font color=&quot;#000000&quot;&gt;Интернет&lt;/font&gt;&lt;/a&gt;&lt;span style=&quot;color: rgb(32, 33, 34); font-family: sans-serif; font-size: 14px; text-align: left; background-color: rgb(255, 255, 255);&quot;&gt;&amp;nbsp;через свою&amp;nbsp;&lt;/span&gt;&lt;a href=&quot;https://ru.wikipedia.org/wiki/%D0%A1%D0%BE%D1%82%D0%BE%D0%B2%D0%B0%D1%8F_%D1%81%D0%B5%D1%82%D1%8C&quot; class=&quot;mw-redirect&quot; title=&quot;Сотовая сеть&quot; style=&quot;text-decoration-line: none; background: none rgb(255, 255, 255); overflow-wrap: break-word; font-family: sans-serif; font-size: 14px; text-align: left;&quot;&gt;&lt;font color=&quot;#000000&quot;&gt;сотовую сеть&lt;/font&gt;&lt;/a&gt;" style="rounded=0;whiteSpace=wrap;html=1;" vertex="1" parent="1">
          <mxGeometry x="5100" y="960" width="130" height="90" as="geometry" />
        </mxCell>
      </root>
    </mxGraphModel>
  </diagram>
</mxfile>
